<?xml version="1.0" encoding="utf-8"?>
<!-- Generator: Adobe Illustrator 17.0.0, SVG Export Plug-In . SVG Version: 6.00 Build 0)  -->
<!DOCTYPE svg PUBLIC "-//W3C//DTD SVG 1.1//EN" "http://www.w3.org/Graphics/SVG/1.1/DTD/svg11.dtd">
<svg xmlns="http://www.w3.org/2000/svg" xmlns:xlink="http://www.w3.org/1999/xlink" version="1.1" id="Layer_1" x="0px" y="0px" width="26px" height="26px" viewBox="0 0 26 26" enable-background="new 0 0 26 26" xml:space="preserve">
<path fill="none" stroke="#000000" stroke-width="1.9718" stroke-linecap="round" stroke-linejoin="round" stroke-miterlimit="10" d="  M23,10.998c0,6.627-4.477,14-10,14s-10-7.373-10-14s4.477-10,10-10S23,4.37,23,10.998z"/>
<path fill="#000000" d="M22.929,9.65C20.2,9.244,16.755,9,13,9S5.8,9.244,3.071,9.65C3.028,10.085,3,10.531,3,10.998  c0,1.124,0.138,3.268,0.379,4.395C6.059,15.772,9.383,16,13,16s6.941-0.228,9.621-0.607C22.862,14.266,23,12.122,23,10.998  C23,10.531,22.972,10.085,22.929,9.65z M17,14c-1.105,0-1.875-0.877-2-1.5c0,0,3.256-0.952,5-1.5C20,12.104,18.861,14,17,14z M6,11  c1.744,0.548,5,1.5,5,1.5c-0.125,0.623-0.895,1.5-2,1.5C7.139,14,6,12.104,6,11z"/>
<path fill="none" stroke="#000000" stroke-width="1.9718" stroke-linecap="round" stroke-linejoin="round" stroke-miterlimit="10" d="  M4.259,5.65c0,0,9.693-0.329,18.715,4.553"/>
<path fill="none" stroke="#000000" stroke-width="1.9718" stroke-linecap="round" stroke-linejoin="round" stroke-miterlimit="10" d="  M5.378,15.064c0,0,5.976,3.416,14.884,4.498"/>
<path fill="none" stroke="#000000" stroke-width="1.9718" stroke-linecap="round" stroke-linejoin="round" stroke-miterlimit="10" d="  M4.42,17.696c0,0,5.263,4.308,13.106,5.581"/>
<path fill="none" stroke="#000000" stroke-width="1.9718" stroke-linecap="round" stroke-linejoin="round" stroke-miterlimit="10" d="  M12.863,6.569c0,0,3.945-1.592,8.66-1.291"/>
<path fill="none" stroke="#000000" stroke-width="1.9718" stroke-linecap="round" stroke-linejoin="round" stroke-miterlimit="10" d="  M7.786,5.801c0,0,3.413-2.546,10.179-3.723"/>
</svg>
